<svg width="500" height="500" viewBox="0 0 500 500" fill="none" xmlns="http://www.w3.org/2000/svg">
<g clip-path="url(#clip0_17_2)">
<path d="M202.8 31.2C195.6 30.4 188 30 180 30C166.4 30.4 155 31.8 145.8 34.2C126.2 39 115.8 50.2 114.6 67.8C114.2 75 115.4 82.4 118.2 90C122.2 100.4 127 108.4 132.6 114C145.4 127.2 160.8 134.4 178.8 135.6C183.6 135.6 186.8 133.6 188.4 129.6C189.2 128 189.4 126 189 123.6C189 121.2 187.6 118.2 184.8 114.6C181.6 108.2 180 102.6 180 97.8C181.2 89 185 83.8 191.4 82.2C205 77.8 218.2 76 231 76.8C246.6 78 260.2 82.2 271.8 89.4C288.2 100.2 297.8 115.8 300.6 136.2C301.8 143.8 301.4 150.8 299.4 157.2C294.6 174.4 281.8 187 261 195C247 201 231.4 204 214.2 204C210.2 204 207 205.4 204.6 208.2C199.8 213.8 202.4 221.6 212.4 231.6C213.2 232 214 232.6 214.8 233.4C228.4 245 242.2 250.8 256.2 250.8C275.4 250.8 293.6 256.2 310.8 267C336.4 283 354.4 306.2 364.8 336.6C365.6 339.4 366.4 342.2 367.2 345C368.4 349 369 354.2 369 360.6C369 366.6 368.6 371.2 367.8 374.4C361.8 392.8 348.4 405.6 327.6 412.8C312.8 418 298.4 420 284.4 418.8C258.4 416.4 235.8 402.4 216.6 376.8C210.6 368.8 204.4 362.8 198 358.8C186.4 351.2 175.2 347.4 164.4 347.4C160 347.4 156.8 349.2 154.8 352.8C152 357.2 154.6 364.4 162.6 374.4C190.6 412 227 439 271.8 455.4C273 455.8 274.2 456.2 275.4 456.6C308.2 467 337.8 469.2 364.2 463.2C388.2 458.8 407.2 447.6 421.2 429.6C435.6 411.2 438.8 389 430.8 363C419.6 323.4 395.6 288.8 358.8 259.2C346 249.2 335.6 242 327.6 237.6C326.4 236.8 325.6 236.2 325.2 235.8L327.6 234C330.8 232.4 336.8 228.2 345.6 221.4C354.4 213.4 360.8 202.6 364.8 189C365.6 185.4 366 179.8 366 172.2C366 164.2 365.6 158.4 364.8 154.8C361.2 136.8 352.6 119.6 339 103.2C330.2 92.4 321.6 84 313.2 78C280 51.2 243.2 35.6 202.8 31.2Z" fill="white"/>
<path d="M297.2 31.2C304.4 30.4 312 30 320 30C333.6 30.4 345 31.8 354.2 34.2C373.8 39 384.2 50.2 385.4 67.8C385.8 75 384.6 82.4 381.8 90C377.8 100.4 373 108.4 367.4 114C354.6 127.2 339.2 134.4 321.2 135.6C316.4 135.6 313.2 133.6 311.6 129.6C310.8 128 310.6 126 311 123.6C311 121.2 312.4 118.2 315.2 114.6C318.4 108.2 320 102.6 320 97.8C318.8 89 315 83.8 308.6 82.2C295 77.8 281.8 76 269 76.8C253.4 78 239.8 82.2 228.2 89.4C211.8 100.2 202.2 115.8 199.4 136.2C198.2 143.8 198.6 150.8 200.6 157.2C205.4 174.4 218.2 187 239 195C253 201 268.6 204 285.8 204C289.8 204 293 205.4 295.4 208.2C300.2 213.8 297.6 221.6 287.6 231.6C286.8 232 286 232.6 285.2 233.4C271.6 245 257.8 250.8 243.8 250.8C224.6 250.8 206.4 256.2 189.2 267C163.6 283 145.6 306.2 135.2 336.6C134.4 339.4 133.6 342.2 132.8 345C131.6 349 131 354.2 131 360.6C131 366.6 131.4 371.2 132.2 374.4C138.2 392.8 151.6 405.6 172.4 412.8C187.2 418 201.6 420 215.6 418.8C241.6 416.4 264.2 402.4 283.4 376.8C289.4 368.8 295.6 362.8 302 358.8C313.6 351.2 324.8 347.4 335.6 347.4C340 347.4 343.2 349.2 345.2 352.8C348 357.2 345.4 364.4 337.4 374.4C309.4 412 273 439 228.2 455.4C227 455.8 225.8 456.2 224.6 456.6C191.8 467 162.2 469.2 135.8 463.2C111.8 458.8 92.8 447.6 78.8 429.6C64.4 411.2 61.2 389 69.2 363C80.4 323.4 104.4 288.8 141.2 259.2C154 249.2 164.4 242 172.4 237.6C173.6 236.8 174.4 236.2 174.8 235.8L172.4 234C169.2 232.4 163.2 228.2 154.4 221.4C145.6 213.4 139.2 202.6 135.2 189C134.4 185.4 134 179.8 134 172.2C134 164.2 134.4 158.4 135.2 154.8C138.8 136.8 147.4 119.6 161 103.2C169.8 92.4 178.4 84 186.8 78C220 51.2 256.8 35.6 297.2 31.2Z" fill="white"/>
</g>
<defs>
<clipPath id="clip0_17_2">
<rect width="500" height="500" fill="white"/>
</clipPath>
</defs>
</svg>
