<svg width="600" height="600" viewBox="0 0 600 600" fill="none" xmlns="http://www.w3.org/2000/svg">
<g clip-path="url(#clip0_17_2)">
<circle cx="300" cy="300" r="300" fill="#0084CC"/>
<path d="M252.8 81.2C245.6 80.4 238 80 230 80C216.4 80.4 205 81.8 195.8 84.2C176.2 89 165.8 100.2 164.6 117.8C164.2 125 165.4 132.4 168.2 140C172.2 150.4 177 158.4 182.6 164C195.4 177.2 210.8 184.4 228.8 185.6C233.6 185.6 236.8 183.6 238.4 179.6C239.2 178 239.4 176 239 173.6C239 171.2 237.6 168.2 234.8 164.6C231.6 158.2 230 152.6 230 147.8C231.2 139 235 133.8 241.4 132.2C255 127.8 268.2 126 281 126.8C296.6 128 310.2 132.2 321.8 139.4C338.2 150.2 347.8 165.8 350.6 186.2C351.8 193.8 351.4 200.8 349.4 207.2C344.6 224.4 331.8 237 311 245C297 251 281.4 254 264.2 254C260.2 254 257 255.4 254.6 258.2C249.8 263.8 252.4 271.6 262.4 281.6C263.2 282 264 282.6 264.8 283.4C278.4 295 292.2 300.8 306.2 300.8C325.4 300.8 343.6 306.2 360.8 317C386.4 333 404.4 356.2 414.8 386.6C415.6 389.4 416.4 392.2 417.2 395C418.4 399 419 404.2 419 410.6C419 416.6 418.6 421.2 417.8 424.4C411.8 442.8 398.4 455.6 377.6 462.8C362.8 468 348.4 470 334.4 468.8C308.4 466.4 285.8 452.4 266.6 426.8C260.6 418.8 254.4 412.8 248 408.8C236.4 401.2 225.2 397.4 214.4 397.4C210 397.4 206.8 399.2 204.8 402.8C202 407.2 204.6 414.4 212.6 424.4C240.6 462 277 489 321.8 505.4C323 505.8 324.2 506.2 325.4 506.6C358.2 517 387.8 519.2 414.2 513.2C438.2 508.8 457.2 497.6 471.2 479.6C485.6 461.2 488.8 439 480.8 413C469.6 373.4 445.6 338.8 408.8 309.2C396 299.2 385.6 292 377.6 287.6C376.4 286.8 375.6 286.2 375.2 285.8L377.6 284C380.8 282.4 386.8 278.2 395.6 271.4C404.4 263.4 410.8 252.6 414.8 239C415.6 235.4 416 229.8 416 222.2C416 214.2 415.6 208.4 414.8 204.8C411.2 186.8 402.6 169.6 389 153.2C380.2 142.4 371.6 134 363.2 128C330 101.2 293.2 85.6 252.8 81.2Z" fill="white"/>
<path d="M347.2 81.2C354.4 80.4 362 80 370 80C383.6 80.4 395 81.8 404.2 84.2C423.8 89 434.2 100.2 435.4 117.8C435.8 125 434.6 132.4 431.8 140C427.8 150.4 423 158.4 417.4 164C404.6 177.2 389.2 184.4 371.2 185.6C366.4 185.6 363.2 183.6 361.6 179.6C360.8 178 360.6 176 361 173.6C361 171.2 362.4 168.2 365.2 164.6C368.4 158.2 370 152.6 370 147.8C368.8 139 365 133.8 358.6 132.2C345 127.8 331.8 126 319 126.8C303.4 128 289.8 132.2 278.2 139.4C261.8 150.2 252.2 165.8 249.4 186.2C248.2 193.8 248.6 200.8 250.6 207.2C255.4 224.4 268.2 237 289 245C303 251 318.6 254 335.8 254C339.8 254 343 255.4 345.4 258.2C350.2 263.8 347.6 271.6 337.6 281.6C336.8 282 336 282.6 335.2 283.4C321.6 295 307.8 300.8 293.8 300.8C274.6 300.8 256.4 306.2 239.2 317C213.6 333 195.6 356.2 185.2 386.6C184.4 389.4 183.6 392.2 182.8 395C181.6 399 181 404.2 181 410.6C181 416.6 181.4 421.2 182.2 424.4C188.2 442.8 201.6 455.6 222.4 462.8C237.2 468 251.6 470 265.6 468.8C291.6 466.4 314.2 452.4 333.4 426.8C339.4 418.8 345.6 412.8 352 408.8C363.6 401.2 374.8 397.4 385.6 397.4C390 397.4 393.2 399.2 395.2 402.8C398 407.2 395.4 414.4 387.4 424.4C359.4 462 323 489 278.2 505.4C277 505.8 275.8 506.2 274.6 506.6C241.8 517 212.2 519.2 185.8 513.2C161.8 508.8 142.8 497.6 128.8 479.6C114.4 461.2 111.2 439 119.2 413C130.4 373.4 154.4 338.8 191.2 309.2C204 299.2 214.4 292 222.4 287.6C223.6 286.8 224.4 286.2 224.8 285.8L222.4 284C219.2 282.4 213.2 278.2 204.4 271.4C195.6 263.4 189.2 252.6 185.2 239C184.4 235.4 184 229.8 184 222.2C184 214.2 184.4 208.4 185.2 204.8C188.8 186.8 197.4 169.6 211 153.2C219.8 142.4 228.4 134 236.8 128C270 101.2 306.8 85.6 347.2 81.2Z" fill="white"/>
</g>
<defs>
<clipPath id="clip0_17_2">
<rect width="600" height="600" fill="white"/>
</clipPath>
</defs>
</svg>
