<svg width="400" height="400" viewBox="0 0 400 400" fill="none" xmlns="http://www.w3.org/2000/svg">
<path d="M174.9 42.1C171.3 41.7 167.5 41.5 163.5 41.5C156.7 41.7 151 42.4 146.4 43.6C136.6 46 131.4 51.6 130.8 60.4C130.6 64 131.2 67.7 132.6 71.5C134.6 76.7 137 80.7 139.8 83.5C146.2 90.1 153.9 93.7 162.9 94.3C165.3 94.3 166.9 93.3 167.7 91.3C168.1 90.5 168.2 89.5 168 88.3C168 87.1 167.3 85.6 165.9 83.8C164.3 80.6 163.5 77.8 163.5 75.4C164.1 71 166 68.4 169.2 67.6C176 65.4 182.6 64.5 189 64.9C196.8 65.5 203.6 67.6 209.4 71.2C217.6 76.6 222.4 84.4 223.8 94.6C224.4 98.4 224.2 101.9 223.2 105.1C220.8 113.7 214.4 120 204 124C197 127 189.2 128.5 180.6 128.5C178.6 128.5 177 129.2 175.8 130.6C173.4 133.4 174.7 137.3 179.7 142.3C180.1 142.5 180.5 142.8 180.9 143.2C187.7 149 194.6 151.9 201.6 151.9C211.2 151.9 220.3 154.6 228.9 160C241.7 168 250.7 179.6 255.9 194.8C256.3 196.2 256.7 197.6 257.1 199C257.7 201 258 203.6 258 206.8C258 209.8 257.8 212.1 257.4 213.7C254.4 222.9 247.7 229.3 237.3 232.9C229.9 235.5 222.7 236.5 215.7 235.9C202.7 234.7 191.4 227.7 181.8 214.9C178.8 210.9 175.7 207.9 172.5 205.9C166.7 202.1 161.1 200.2 155.7 200.2C153.5 200.2 151.9 201.1 150.9 202.9C149.5 205.1 150.8 208.7 154.8 213.7C168.8 232.5 187 246 209.4 254.2C210 254.4 210.6 254.6 211.2 254.8C227.6 260 242.4 261.1 255.6 258.1C267.6 255.9 277.1 250.3 284.1 241.3C291.3 232.1 292.9 221 288.9 208C283.3 188.2 271.3 170.9 252.9 156.1C246.5 151.1 241.3 147.5 237.3 145.3C236.7 144.9 236.3 144.6 236.1 144.4L237.3 143.5C238.9 142.7 241.9 140.6 246.3 137.2C250.7 133.2 253.9 127.8 255.9 121C256.3 119.2 256.5 116.4 256.5 112.6C256.5 108.6 256.3 105.7 255.9 103.9C254.1 94.9 249.8 86.3 243 78.1C238.6 72.7 234.3 68.5 230.1 65.5C213.5 52.1 195.1 44.3 174.9 42.1Z" fill="#0084CC"/>
<path d="M225.1 42.1C228.7 41.7 232.5 41.5 236.5 41.5C243.3 41.7 249 42.4 253.6 43.6C263.4 46 268.6 51.6 269.2 60.4C269.4 64 268.8 67.7 267.4 71.5C265.4 76.7 263 80.7 260.2 83.5C253.8 90.1 246.1 93.7 237.1 94.3C234.7 94.3 233.1 93.3 232.3 91.3C231.9 90.5 231.8 89.5 232 88.3C232 87.1 232.7 85.6 234.1 83.8C235.7 80.6 236.5 77.8 236.5 75.4C235.9 71 234 68.4 230.8 67.6C224 65.4 217.4 64.5 211 64.9C203.2 65.5 196.4 67.6 190.6 71.2C182.4 76.6 177.6 84.4 176.2 94.6C175.6 98.4 175.8 101.9 176.8 105.1C179.2 113.7 185.6 120 196 124C203 127 210.8 128.5 219.4 128.5C221.4 128.5 223 129.2 224.2 130.6C226.6 133.4 225.3 137.3 220.3 142.3C219.9 142.5 219.5 142.8 219.1 143.2C212.3 149 205.4 151.9 198.4 151.9C188.8 151.9 179.7 154.6 171.1 160C158.3 168 149.3 179.6 144.1 194.8C143.7 196.2 143.3 197.6 142.9 199C142.3 201 142 203.6 142 206.8C142 209.8 142.2 212.1 142.6 213.7C145.6 222.9 152.3 229.3 162.7 232.9C170.1 235.5 177.3 236.5 184.3 235.9C197.3 234.7 208.6 227.7 218.2 214.9C221.2 210.9 224.3 207.9 227.5 205.9C233.3 202.1 238.9 200.2 244.3 200.2C246.5 200.2 248.1 201.1 249.1 202.9C250.5 205.1 249.2 208.7 245.2 213.7C231.2 232.5 213 246 190.6 254.2C190 254.4 189.4 254.6 188.8 254.8C172.4 260 157.6 261.1 144.4 258.1C132.4 255.9 122.9 250.3 115.9 241.3C108.7 232.1 107.1 221 111.1 208C116.7 188.2 128.7 170.9 147.1 156.1C153.5 151.1 158.7 147.5 162.7 145.3C163.3 144.9 163.7 144.6 163.9 144.4L162.7 143.5C161.1 142.7 158.1 140.6 153.7 137.2C149.3 133.2 146.1 127.8 144.1 121C143.7 119.2 143.5 116.4 143.5 112.6C143.5 108.6 143.7 105.7 144.1 103.9C145.9 94.9 150.2 86.3 157 78.1C161.4 72.7 165.7 68.5 169.9 65.5C186.5 52.1 204.9 44.3 225.1 42.1Z" fill="#0084CC"/>
<path d="M134.144 346.416C132.053 346.288 129.984 346.16 127.936 346.032C125.888 345.925 123.808 345.84 121.696 345.776C119.989 345.691 118.251 345.605 116.48 345.52C114.709 345.413 112.96 345.317 111.232 345.232C111.083 341.648 110.976 338.171 110.912 334.8C110.869 331.408 110.848 328.229 110.848 325.264C110.848 320.507 110.891 316.464 110.976 313.136C111.061 309.808 111.147 307.419 111.232 305.968C115.264 305.221 118.997 304.677 122.432 304.336C125.867 303.973 128.736 303.749 131.04 303.664C133.365 303.579 134.816 303.536 135.392 303.536C135.392 304.923 135.349 306.288 135.264 307.632C135.179 308.955 135.072 310.352 134.944 311.824L121.248 312.944C121.227 313.221 121.205 313.659 121.184 314.256C121.163 314.832 121.141 315.472 121.12 316.176C121.12 316.859 121.12 317.499 121.12 318.096C121.12 318.693 121.12 319.131 121.12 319.408C121.611 319.408 122.24 319.408 123.008 319.408C123.797 319.387 124.651 319.365 125.568 319.344C126.507 319.323 127.445 319.301 128.384 319.28C129.323 319.259 130.197 319.248 131.008 319.248C131.84 319.227 132.544 319.205 133.12 319.184L132.992 327.952C132.715 327.952 132.171 327.941 131.36 327.92C130.549 327.877 129.611 327.835 128.544 327.792C127.499 327.749 126.443 327.717 125.376 327.696C124.309 327.653 123.371 327.621 122.56 327.6C121.749 327.579 121.195 327.579 120.896 327.6C120.875 327.813 120.853 328.176 120.832 328.688C120.832 329.179 120.821 329.744 120.8 330.384C120.8 331.003 120.8 331.653 120.8 332.336C120.8 332.997 120.789 333.616 120.768 334.192C120.768 334.747 120.768 335.195 120.768 335.536C121.045 335.536 121.792 335.536 123.008 335.536C124.224 335.515 125.472 335.504 126.752 335.504C127.819 335.504 128.885 335.525 129.952 335.568C131.019 335.611 132.011 335.664 132.928 335.728C133.845 335.771 134.592 335.813 135.168 335.856C135.168 336.709 135.125 337.691 135.04 338.8C134.955 339.888 134.859 340.965 134.752 342.032C134.667 343.099 134.56 344.037 134.432 344.848C134.325 345.637 134.229 346.16 134.144 346.416ZM163.873 345.904C163.83 345.605 163.798 345.179 163.777 344.624C163.756 344.069 163.734 343.504 163.713 342.928C163.713 342.331 163.713 341.851 163.713 341.488C163.457 341.851 163.052 342.288 162.497 342.8C161.964 343.291 161.27 343.781 160.417 344.272C159.564 344.763 158.529 345.179 157.313 345.52C156.097 345.84 154.678 346 153.057 346C150.369 346 148.054 345.349 146.113 344.048C144.172 342.747 142.678 340.976 141.633 338.736C140.588 336.475 140.065 333.936 140.065 331.12C140.065 328.347 140.588 325.765 141.633 323.376C142.7 320.965 144.289 319.024 146.401 317.552C148.513 316.059 151.169 315.312 154.369 315.312C155.969 315.312 157.42 315.493 158.721 315.856C160.044 316.219 161.164 316.677 162.081 317.232C162.998 317.765 163.649 318.309 164.033 318.864C164.097 317.691 164.182 316.347 164.289 314.832C164.396 313.296 164.513 311.728 164.641 310.128C164.79 308.507 164.929 306.971 165.057 305.52C165.185 304.069 165.292 302.832 165.377 301.808C165.484 300.763 165.558 300.069 165.601 299.728C166.838 299.728 168.225 299.803 169.761 299.952C171.318 300.08 172.694 300.304 173.889 300.624C173.526 305.509 173.238 310.395 173.025 315.28C172.812 320.144 172.662 325.125 172.577 330.224C172.513 335.301 172.481 340.624 172.481 346.192C171.99 346.192 171.18 346.181 170.049 346.16C168.94 346.139 167.798 346.107 166.625 346.064C165.452 346.021 164.534 345.968 163.873 345.904ZM155.713 336.688C156.652 336.688 157.516 336.581 158.305 336.368C159.094 336.155 159.82 335.867 160.481 335.504C161.142 335.12 161.718 334.715 162.209 334.288C162.721 333.84 163.148 333.392 163.489 332.944C163.489 332.517 163.489 331.995 163.489 331.376C163.489 330.736 163.489 330.096 163.489 329.456C163.51 328.816 163.521 328.208 163.521 327.632C163.542 327.056 163.564 326.608 163.585 326.288C163.116 325.84 162.465 325.403 161.633 324.976C160.801 324.549 159.884 324.208 158.881 323.952C157.9 323.675 156.897 323.536 155.873 323.536C153.782 323.536 152.15 324.165 150.977 325.424C149.825 326.661 149.249 328.272 149.249 330.256C149.249 332.347 149.804 333.947 150.913 335.056C152.044 336.144 153.644 336.688 155.713 336.688ZM200.363 314.704C200.896 314.512 201.654 314.373 202.635 314.288C203.638 314.181 204.608 314.128 205.547 314.128C206.336 314.128 207.211 314.16 208.171 314.224C209.131 314.288 209.91 314.363 210.507 314.448C210.784 316.176 210.998 317.925 211.147 319.696C211.296 321.445 211.371 323.173 211.371 324.88C211.371 328.016 211.094 330.971 210.539 333.744C210.006 336.517 209.12 338.96 207.883 341.072C206.646 343.184 204.992 344.837 202.923 346.032C200.854 347.248 198.304 347.856 195.275 347.856C192.054 347.856 189.398 347.227 187.307 345.968C185.216 344.688 183.584 342.917 182.411 340.656C181.238 338.373 180.416 335.717 179.947 332.688C179.499 329.637 179.275 326.352 179.275 322.832C179.275 321.275 179.307 319.696 179.371 318.096C179.456 316.475 179.563 314.864 179.691 313.264C180.246 313.221 180.971 313.189 181.867 313.168C182.784 313.125 183.616 313.115 184.363 313.136C185.43 313.136 186.496 313.2 187.563 313.328C188.651 313.435 189.504 313.584 190.123 313.776C189.974 315.227 189.846 316.795 189.739 318.48C189.632 320.144 189.579 321.819 189.579 323.504C189.579 326.32 189.76 328.859 190.123 331.12C190.507 333.381 191.136 335.173 192.011 336.496C192.886 337.819 194.07 338.48 195.563 338.48C196.971 338.48 198.091 337.883 198.923 336.688C199.776 335.493 200.384 333.893 200.747 331.888C201.131 329.861 201.323 327.6 201.323 325.104C201.323 323.227 201.227 321.381 201.035 319.568C200.864 317.733 200.64 316.112 200.363 314.704ZM239.811 345.904C239.768 345.605 239.736 345.179 239.715 344.624C239.693 344.069 239.672 343.504 239.651 342.928C239.651 342.331 239.651 341.851 239.651 341.488C239.395 341.851 238.989 342.288 238.435 342.8C237.901 343.291 237.208 343.781 236.355 344.272C235.501 344.763 234.467 345.179 233.251 345.52C232.035 345.84 230.616 346 228.995 346C226.307 346 223.992 345.349 222.051 344.048C220.109 342.747 218.616 340.976 217.571 338.736C216.525 336.475 216.003 333.936 216.003 331.12C216.003 328.347 216.525 325.765 217.571 323.376C218.637 320.965 220.227 319.024 222.339 317.552C224.451 316.059 227.107 315.312 230.307 315.312C231.907 315.312 233.357 315.493 234.659 315.856C235.981 316.219 237.101 316.677 238.019 317.232C238.936 317.765 239.587 318.309 239.971 318.864C240.035 317.691 240.12 316.347 240.227 314.832C240.333 313.296 240.451 311.728 240.579 310.128C240.728 308.507 240.867 306.971 240.995 305.52C241.123 304.069 241.229 302.832 241.315 301.808C241.421 300.763 241.496 300.069 241.539 299.728C242.776 299.728 244.163 299.803 245.699 299.952C247.256 300.08 248.632 300.304 249.826 300.624C249.464 305.509 249.176 310.395 248.963 315.28C248.749 320.144 248.6 325.125 248.515 330.224C248.451 335.301 248.419 340.624 248.419 346.192C247.928 346.192 247.117 346.181 245.987 346.16C244.877 346.139 243.736 346.107 242.563 346.064C241.389 346.021 240.472 345.968 239.811 345.904ZM231.651 336.688C232.589 336.688 233.453 336.581 234.243 336.368C235.032 336.155 235.757 335.867 236.419 335.504C237.08 335.12 237.656 334.715 238.147 334.288C238.659 333.84 239.085 333.392 239.427 332.944C239.427 332.517 239.427 331.995 239.427 331.376C239.427 330.736 239.427 330.096 239.427 329.456C239.448 328.816 239.459 328.208 239.459 327.632C239.48 327.056 239.501 326.608 239.523 326.288C239.053 325.84 238.403 325.403 237.571 324.976C236.739 324.549 235.821 324.208 234.819 323.952C233.837 323.675 232.835 323.536 231.811 323.536C229.72 323.536 228.088 324.165 226.915 325.424C225.763 326.661 225.187 328.272 225.187 330.256C225.187 332.347 225.741 333.947 226.851 335.056C227.981 336.144 229.581 336.688 231.651 336.688ZM276.301 314.704C276.834 314.512 277.591 314.373 278.573 314.288C279.575 314.181 280.546 314.128 281.485 314.128C282.274 314.128 283.149 314.16 284.109 314.224C285.069 314.288 285.847 314.363 286.444 314.448C286.722 316.176 286.935 317.925 287.085 319.696C287.234 321.445 287.309 323.173 287.309 324.88C287.309 328.016 287.031 330.971 286.477 333.744C285.943 336.517 285.058 338.96 283.821 341.072C282.583 343.184 280.93 344.837 278.861 346.032C276.791 347.248 274.242 347.856 271.213 347.856C267.991 347.856 265.335 347.227 263.245 345.968C261.154 344.688 259.522 342.917 258.349 340.656C257.175 338.373 256.354 335.717 255.885 332.688C255.437 329.637 255.213 326.352 255.213 322.832C255.213 321.275 255.245 319.696 255.309 318.096C255.394 316.475 255.501 314.864 255.629 313.264C256.183 313.221 256.909 313.189 257.805 313.168C258.722 313.125 259.554 313.115 260.301 313.136C261.367 313.136 262.434 313.2 263.501 313.328C264.589 313.435 265.442 313.584 266.061 313.776C265.911 315.227 265.783 316.795 265.677 318.48C265.57 320.144 265.517 321.819 265.517 323.504C265.517 326.32 265.698 328.859 266.061 331.12C266.445 333.381 267.074 335.173 267.949 336.496C268.823 337.819 270.007 338.48 271.501 338.48C272.909 338.48 274.029 337.883 274.861 336.688C275.714 335.493 276.322 333.893 276.685 331.888C277.069 329.861 277.261 327.6 277.261 325.104C277.261 323.227 277.165 321.381 276.973 319.568C276.802 317.733 276.578 316.112 276.301 314.704Z" fill="#0084CC"/>
</svg>
